<mxfile host="65bd71144e">
    <diagram name="user" id="ug879IKl7H1bziPad8WI">
        <mxGraphModel dx="1121" dy="601" grid="1" gridSize="5" guides="1" tooltips="1" connect="1" arrows="1" fold="1" page="0" pageScale="1" pageWidth="850" pageHeight="1100" background="none" math="0" shadow="0">
            <root>
                <mxCell id="0"/>
                <mxCell id="1" parent="0"/>
                <mxCell id="BJ5u_U8COw-7iSaBSwZO-19" value="" style="rounded=0;whiteSpace=wrap;html=1;fillColor=none;" vertex="1" parent="1">
                    <mxGeometry y="480" width="600" height="400" as="geometry"/>
                </mxCell>
                <mxCell id="BJ5u_U8COw-7iSaBSwZO-18" value="" style="rounded=0;whiteSpace=wrap;html=1;fillColor=none;" vertex="1" parent="1">
                    <mxGeometry y="40" width="600" height="400" as="geometry"/>
                </mxCell>
                <mxCell id="11" value="" style="rounded=0;whiteSpace=wrap;html=1;fillColor=none;" parent="1" vertex="1">
                    <mxGeometry x="220" y="510" width="160" height="340" as="geometry"/>
                </mxCell>
                <mxCell id="3" value="email" style="rounded=0;whiteSpace=wrap;html=1;" parent="1" vertex="1">
                    <mxGeometry x="240" y="130" width="120" height="40" as="geometry"/>
                </mxCell>
                <mxCell id="5" value="password" style="rounded=0;whiteSpace=wrap;html=1;" parent="1" vertex="1">
                    <mxGeometry x="240" y="190" width="120" height="40" as="geometry"/>
                </mxCell>
                <mxCell id="7" value="" style="rounded=0;whiteSpace=wrap;html=1;fillColor=none;" parent="1" vertex="1">
                    <mxGeometry x="220" y="110" width="160" height="280" as="geometry"/>
                </mxCell>
                <mxCell id="6" value="login" style="rounded=0;whiteSpace=wrap;html=1;" parent="1" vertex="1">
                    <mxGeometry x="240" y="250" width="120" height="40" as="geometry"/>
                </mxCell>
                <mxCell id="8" value="name" style="rounded=0;whiteSpace=wrap;html=1;" parent="1" vertex="1">
                    <mxGeometry x="240" y="530" width="120" height="40" as="geometry"/>
                </mxCell>
                <mxCell id="9" value="email" style="rounded=0;whiteSpace=wrap;html=1;" parent="1" vertex="1">
                    <mxGeometry x="240" y="590" width="120" height="40" as="geometry"/>
                </mxCell>
                <mxCell id="10" value="register" style="rounded=0;whiteSpace=wrap;html=1;" parent="1" vertex="1">
                    <mxGeometry x="240" y="710" width="120" height="40" as="geometry"/>
                </mxCell>
                <mxCell id="12" value="password" style="rounded=0;whiteSpace=wrap;html=1;" parent="1" vertex="1">
                    <mxGeometry x="240" y="650" width="120" height="40" as="geometry"/>
                </mxCell>
                <mxCell id="13" value="" style="rounded=0;whiteSpace=wrap;html=1;fillColor=none;" parent="1" vertex="1">
                    <mxGeometry x="640" y="40" width="600" height="400" as="geometry"/>
                </mxCell>
                <mxCell id="14" value="" style="endArrow=none;html=1;exitX=0;exitY=0.15;exitDx=0;exitDy=0;exitPerimeter=0;entryX=1;entryY=0.149;entryDx=0;entryDy=0;entryPerimeter=0;rounded=0;" parent="1" source="13" target="13" edge="1">
                    <mxGeometry width="50" height="50" relative="1" as="geometry">
                        <mxPoint x="810" y="295" as="sourcePoint"/>
                        <mxPoint x="860" y="245" as="targetPoint"/>
                    </mxGeometry>
                </mxCell>
                <mxCell id="15" value="Logout" style="rounded=0;whiteSpace=wrap;html=1;" parent="1" vertex="1">
                    <mxGeometry x="1110" y="50" width="120" height="40" as="geometry"/>
                </mxCell>
                <mxCell id="16" value="PC Builder" style="rounded=0;whiteSpace=wrap;html=1;" parent="1" vertex="1">
                    <mxGeometry x="815" y="50" width="120" height="40" as="geometry"/>
                </mxCell>
                <mxCell id="17" value="Orders" style="rounded=0;whiteSpace=wrap;html=1;" parent="1" vertex="1">
                    <mxGeometry x="945" y="50" width="120" height="40" as="geometry"/>
                </mxCell>
                <mxCell id="18" value="Account" style="rounded=0;whiteSpace=wrap;html=1;" parent="1" vertex="1">
                    <mxGeometry x="650" y="50" width="120" height="40" as="geometry"/>
                </mxCell>
                <mxCell id="BJ5u_U8COw-7iSaBSwZO-20" value="register" style="rounded=0;whiteSpace=wrap;html=1;" vertex="1" parent="1">
                    <mxGeometry x="240" y="330" width="120" height="40" as="geometry"/>
                </mxCell>
                <mxCell id="BJ5u_U8COw-7iSaBSwZO-21" value="login" style="rounded=0;whiteSpace=wrap;html=1;" vertex="1" parent="1">
                    <mxGeometry x="240" y="790" width="120" height="40" as="geometry"/>
                </mxCell>
                <mxCell id="X7_QkAji4GwNY-2Vgij3-18" value="" style="rounded=0;whiteSpace=wrap;html=1;fillColor=none;" vertex="1" parent="1">
                    <mxGeometry x="640" y="480" width="600" height="400" as="geometry"/>
                </mxCell>
                <mxCell id="X7_QkAji4GwNY-2Vgij3-19" value="" style="endArrow=none;html=1;exitX=0;exitY=0.15;exitDx=0;exitDy=0;exitPerimeter=0;entryX=1;entryY=0.149;entryDx=0;entryDy=0;entryPerimeter=0;rounded=0;" edge="1" parent="1" source="X7_QkAji4GwNY-2Vgij3-18" target="X7_QkAji4GwNY-2Vgij3-18">
                    <mxGeometry width="50" height="50" relative="1" as="geometry">
                        <mxPoint x="810" y="735" as="sourcePoint"/>
                        <mxPoint x="860" y="685" as="targetPoint"/>
                    </mxGeometry>
                </mxCell>
                <mxCell id="X7_QkAji4GwNY-2Vgij3-20" value="Logout" style="rounded=0;whiteSpace=wrap;html=1;" vertex="1" parent="1">
                    <mxGeometry x="1110" y="490" width="120" height="40" as="geometry"/>
                </mxCell>
                <mxCell id="X7_QkAji4GwNY-2Vgij3-21" value="PC Builder" style="rounded=0;whiteSpace=wrap;html=1;" vertex="1" parent="1">
                    <mxGeometry x="815" y="490" width="120" height="40" as="geometry"/>
                </mxCell>
                <mxCell id="X7_QkAji4GwNY-2Vgij3-22" value="Orders" style="rounded=0;whiteSpace=wrap;html=1;" vertex="1" parent="1">
                    <mxGeometry x="945" y="490" width="120" height="40" as="geometry"/>
                </mxCell>
                <mxCell id="X7_QkAji4GwNY-2Vgij3-23" value="Account" style="rounded=0;whiteSpace=wrap;html=1;fillColor=#647687;fontColor=#ffffff;strokeColor=#314354;" vertex="1" parent="1">
                    <mxGeometry x="650" y="490" width="115" height="40" as="geometry"/>
                </mxCell>
                <mxCell id="xO_mYTNJgJ-lPrSy64_a-21" value="Change Email&lt;span style=&quot;color: rgba(0, 0, 0, 0); font-family: monospace; font-size: 0px; text-align: start;&quot;&gt;%3CmxGraphModel%3E%3Croot%3E%3CmxCell%20id%3D%220%22%2F%3E%3CmxCell%20id%3D%221%22%20parent%3D%220%22%2F%3E%3CmxCell%20id%3D%222%22%20value%3D%22PC%20Builder%22%20style%3D%22rounded%3D0%3BwhiteSpace%3Dwrap%3Bhtml%3D1%3B%22%20vertex%3D%221%22%20parent%3D%221%22%3E%3CmxGeometry%20x%3D%22815%22%20y%3D%22490%22%20width%3D%22120%22%20height%3D%2240%22%20as%3D%22geometry%22%2F%3E%3C%2FmxCell%3E%3C%2Froot%3E%3C%2FmxGraphModel%3E&lt;/span&gt;" style="rounded=0;whiteSpace=wrap;html=1;" vertex="1" parent="1">
                    <mxGeometry x="950" y="620" width="120" height="40" as="geometry"/>
                </mxCell>
                <mxCell id="xO_mYTNJgJ-lPrSy64_a-22" value="Change Password" style="rounded=0;whiteSpace=wrap;html=1;" vertex="1" parent="1">
                    <mxGeometry x="950" y="740" width="120" height="40" as="geometry"/>
                </mxCell>
                <mxCell id="xO_mYTNJgJ-lPrSy64_a-23" value="Delete Account" style="rounded=0;whiteSpace=wrap;html=1;" vertex="1" parent="1">
                    <mxGeometry x="880" y="800" width="120" height="40" as="geometry"/>
                </mxCell>
                <mxCell id="xO_mYTNJgJ-lPrSy64_a-24" value="Change Address" style="rounded=0;whiteSpace=wrap;html=1;" vertex="1" parent="1">
                    <mxGeometry x="950" y="680" width="120" height="40" as="geometry"/>
                </mxCell>
                <mxCell id="xO_mYTNJgJ-lPrSy64_a-25" value="Change Name" style="rounded=0;whiteSpace=wrap;html=1;" vertex="1" parent="1">
                    <mxGeometry x="950" y="560" width="120" height="40" as="geometry"/>
                </mxCell>
                <mxCell id="xO_mYTNJgJ-lPrSy64_a-26" value="Name" style="text;html=1;strokeColor=none;fillColor=none;align=left;verticalAlign=middle;whiteSpace=wrap;rounded=0;" vertex="1" parent="1">
                    <mxGeometry x="820" y="565" width="60" height="30" as="geometry"/>
                </mxCell>
                <mxCell id="xO_mYTNJgJ-lPrSy64_a-27" value="Email" style="text;html=1;strokeColor=none;fillColor=none;align=left;verticalAlign=middle;whiteSpace=wrap;rounded=0;" vertex="1" parent="1">
                    <mxGeometry x="820" y="625" width="60" height="30" as="geometry"/>
                </mxCell>
                <mxCell id="xO_mYTNJgJ-lPrSy64_a-28" value="Password (masked)" style="text;html=1;strokeColor=none;fillColor=none;align=left;verticalAlign=middle;whiteSpace=wrap;rounded=0;" vertex="1" parent="1">
                    <mxGeometry x="820" y="745" width="65" height="30" as="geometry"/>
                </mxCell>
                <mxCell id="xO_mYTNJgJ-lPrSy64_a-30" value="Address" style="text;html=1;strokeColor=none;fillColor=none;align=left;verticalAlign=middle;whiteSpace=wrap;rounded=0;" vertex="1" parent="1">
                    <mxGeometry x="820" y="685" width="60" height="30" as="geometry"/>
                </mxCell>
            </root>
        </mxGraphModel>
    </diagram>
    <diagram id="L6b0fFPk2nkqsENtK8VC" name="layout">
        <mxGraphModel dx="2138" dy="1332" grid="1" gridSize="5" guides="1" tooltips="1" connect="1" arrows="1" fold="1" page="0" pageScale="1" pageWidth="850" pageHeight="1100" math="0" shadow="0">
            <root>
                <mxCell id="0"/>
                <mxCell id="1" parent="0"/>
                <mxCell id="xvdtq67c64lAIAWTNCyx-1" value="" style="rounded=0;whiteSpace=wrap;html=1;fillColor=none;" parent="1" vertex="1">
                    <mxGeometry x="-300" y="-40" width="600" height="400" as="geometry"/>
                </mxCell>
                <mxCell id="xvdtq67c64lAIAWTNCyx-2" value="" style="endArrow=none;html=1;exitX=0;exitY=0.15;exitDx=0;exitDy=0;exitPerimeter=0;entryX=1;entryY=0.149;entryDx=0;entryDy=0;entryPerimeter=0;rounded=0;" parent="1" source="xvdtq67c64lAIAWTNCyx-1" target="xvdtq67c64lAIAWTNCyx-1" edge="1">
                    <mxGeometry width="50" height="50" relative="1" as="geometry">
                        <mxPoint x="-130" y="215" as="sourcePoint"/>
                        <mxPoint x="-80" y="165" as="targetPoint"/>
                    </mxGeometry>
                </mxCell>
                <mxCell id="xvdtq67c64lAIAWTNCyx-3" value="Logout" style="rounded=0;whiteSpace=wrap;html=1;" parent="1" vertex="1">
                    <mxGeometry x="170" y="-30" width="120" height="40" as="geometry"/>
                </mxCell>
                <mxCell id="xvdtq67c64lAIAWTNCyx-4" value="PC Builder" style="rounded=0;whiteSpace=wrap;html=1;fillColor=#647687;fontColor=#ffffff;strokeColor=#314354;" parent="1" vertex="1">
                    <mxGeometry x="-125" y="-30" width="120" height="40" as="geometry"/>
                </mxCell>
                <mxCell id="xvdtq67c64lAIAWTNCyx-5" value="Orders" style="rounded=0;whiteSpace=wrap;html=1;" parent="1" vertex="1">
                    <mxGeometry x="5" y="-30" width="120" height="40" as="geometry"/>
                </mxCell>
                <mxCell id="xvdtq67c64lAIAWTNCyx-6" value="Account" style="rounded=0;whiteSpace=wrap;html=1;" parent="1" vertex="1">
                    <mxGeometry x="-290" y="-30" width="115" height="40" as="geometry"/>
                </mxCell>
            </root>
        </mxGraphModel>
    </diagram>
    <diagram id="WG777etdhyIdtXSlSi9u" name="pc-part-picker">
        <mxGraphModel dx="1790" dy="1146" grid="1" gridSize="5" guides="1" tooltips="1" connect="1" arrows="1" fold="1" page="0" pageScale="1" pageWidth="850" pageHeight="1100" math="0" shadow="0">
            <root>
                <mxCell id="0"/>
                <mxCell id="1" parent="0"/>
                <mxCell id="pIAtKWpzhlPzETdvAq3F-1" value="" style="rounded=0;whiteSpace=wrap;html=1;fillColor=none;" parent="1" vertex="1">
                    <mxGeometry x="-300" y="-40" width="600" height="400" as="geometry"/>
                </mxCell>
                <mxCell id="pIAtKWpzhlPzETdvAq3F-2" value="" style="endArrow=none;html=1;exitX=0;exitY=0.15;exitDx=0;exitDy=0;exitPerimeter=0;entryX=1;entryY=0.149;entryDx=0;entryDy=0;entryPerimeter=0;rounded=0;" parent="1" source="pIAtKWpzhlPzETdvAq3F-1" target="pIAtKWpzhlPzETdvAq3F-1" edge="1">
                    <mxGeometry width="50" height="50" relative="1" as="geometry">
                        <mxPoint x="-130" y="215" as="sourcePoint"/>
                        <mxPoint x="-80" y="165" as="targetPoint"/>
                    </mxGeometry>
                </mxCell>
                <mxCell id="pIAtKWpzhlPzETdvAq3F-3" value="Logout" style="rounded=0;whiteSpace=wrap;html=1;" parent="1" vertex="1">
                    <mxGeometry x="170" y="-30" width="120" height="40" as="geometry"/>
                </mxCell>
                <mxCell id="pIAtKWpzhlPzETdvAq3F-4" value="PC Builder" style="rounded=0;whiteSpace=wrap;html=1;fillColor=#647687;fontColor=#ffffff;strokeColor=#314354;" parent="1" vertex="1">
                    <mxGeometry x="-125" y="-30" width="120" height="40" as="geometry"/>
                </mxCell>
                <mxCell id="pIAtKWpzhlPzETdvAq3F-5" value="Orders" style="rounded=0;whiteSpace=wrap;html=1;" parent="1" vertex="1">
                    <mxGeometry x="5" y="-30" width="120" height="40" as="geometry"/>
                </mxCell>
                <mxCell id="pIAtKWpzhlPzETdvAq3F-6" value="Account" style="rounded=0;whiteSpace=wrap;html=1;" parent="1" vertex="1">
                    <mxGeometry x="-290" y="-30" width="115" height="40" as="geometry"/>
                </mxCell>
                <mxCell id="pIAtKWpzhlPzETdvAq3F-7" value="choose cpu" style="rounded=0;whiteSpace=wrap;html=1;" parent="1" vertex="1">
                    <mxGeometry x="-140" y="45" width="280" height="30" as="geometry"/>
                </mxCell>
                <mxCell id="pIAtKWpzhlPzETdvAq3F-8" value="CPU" style="text;html=1;align=center;verticalAlign=middle;resizable=0;points=[];autosize=1;strokeColor=none;fillColor=none;" parent="1" vertex="1">
                    <mxGeometry x="-240" y="45" width="45" height="30" as="geometry"/>
                </mxCell>
                <mxCell id="pIAtKWpzhlPzETdvAq3F-9" value="MOBO" style="text;html=1;align=center;verticalAlign=middle;resizable=0;points=[];autosize=1;strokeColor=none;fillColor=none;" parent="1" vertex="1">
                    <mxGeometry x="-240" y="85" width="60" height="30" as="geometry"/>
                </mxCell>
                <mxCell id="pIAtKWpzhlPzETdvAq3F-10" value="Memory" style="text;html=1;align=center;verticalAlign=middle;resizable=0;points=[];autosize=1;strokeColor=none;fillColor=none;" parent="1" vertex="1">
                    <mxGeometry x="-240" y="125" width="65" height="30" as="geometry"/>
                </mxCell>
                <mxCell id="pIAtKWpzhlPzETdvAq3F-11" value="Storage" style="text;html=1;align=center;verticalAlign=middle;resizable=0;points=[];autosize=1;strokeColor=none;fillColor=none;" parent="1" vertex="1">
                    <mxGeometry x="-240" y="165" width="65" height="30" as="geometry"/>
                </mxCell>
                <mxCell id="pIAtKWpzhlPzETdvAq3F-12" value="GPU" style="text;html=1;align=center;verticalAlign=middle;resizable=0;points=[];autosize=1;strokeColor=none;fillColor=none;" parent="1" vertex="1">
                    <mxGeometry x="-240" y="205" width="45" height="30" as="geometry"/>
                </mxCell>
                <mxCell id="pIAtKWpzhlPzETdvAq3F-13" value="Case" style="text;html=1;align=center;verticalAlign=middle;resizable=0;points=[];autosize=1;strokeColor=none;fillColor=none;" parent="1" vertex="1">
                    <mxGeometry x="-240" y="245" width="50" height="30" as="geometry"/>
                </mxCell>
                <mxCell id="pIAtKWpzhlPzETdvAq3F-14" value="choose motherboard&lt;span style=&quot;color: rgba(0, 0, 0, 0); font-family: monospace; font-size: 0px; text-align: start;&quot;&gt;%3CmxGraphModel%3E%3Croot%3E%3CmxCell%20id%3D%220%22%2F%3E%3CmxCell%20id%3D%221%22%20parent%3D%220%22%2F%3E%3CmxCell%20id%3D%222%22%20value%3D%22choose%20cpu%22%20style%3D%22rounded%3D0%3BwhiteSpace%3Dwrap%3Bhtml%3D1%3B%22%20vertex%3D%221%22%20parent%3D%221%22%3E%3CmxGeometry%20x%3D%22-180%22%20y%3D%2245%22%20width%3D%22285%22%20height%3D%2230%22%20as%3D%22geometry%22%2F%3E%3C%2FmxCell%3E%3C%2Froot%3E%3C%2FmxGraphModel%3E&lt;/span&gt;" style="rounded=0;whiteSpace=wrap;html=1;" parent="1" vertex="1">
                    <mxGeometry x="-140" y="85" width="280" height="30" as="geometry"/>
                </mxCell>
                <mxCell id="pIAtKWpzhlPzETdvAq3F-15" value="choose memory" style="rounded=0;whiteSpace=wrap;html=1;" parent="1" vertex="1">
                    <mxGeometry x="-140" y="125" width="280" height="30" as="geometry"/>
                </mxCell>
                <mxCell id="pIAtKWpzhlPzETdvAq3F-16" value="choose storage" style="rounded=0;whiteSpace=wrap;html=1;" parent="1" vertex="1">
                    <mxGeometry x="-140" y="165" width="280" height="30" as="geometry"/>
                </mxCell>
                <mxCell id="pIAtKWpzhlPzETdvAq3F-17" value="choose gpu" style="rounded=0;whiteSpace=wrap;html=1;" parent="1" vertex="1">
                    <mxGeometry x="-140" y="205" width="280" height="30" as="geometry"/>
                </mxCell>
                <mxCell id="pIAtKWpzhlPzETdvAq3F-18" value="choose case" style="rounded=0;whiteSpace=wrap;html=1;" parent="1" vertex="1">
                    <mxGeometry x="-140" y="245" width="280" height="30" as="geometry"/>
                </mxCell>
                <mxCell id="pIAtKWpzhlPzETdvAq3F-19" value="PSU" style="text;html=1;align=center;verticalAlign=middle;resizable=0;points=[];autosize=1;strokeColor=none;fillColor=none;" parent="1" vertex="1">
                    <mxGeometry x="-240" y="285" width="45" height="30" as="geometry"/>
                </mxCell>
                <mxCell id="pIAtKWpzhlPzETdvAq3F-20" value="choose power supply" style="rounded=0;whiteSpace=wrap;html=1;" parent="1" vertex="1">
                    <mxGeometry x="-140" y="285" width="280" height="30" as="geometry"/>
                </mxCell>
                <mxCell id="8gGHFeD9K-X_0oZWLWLG-1" value="" style="rounded=0;whiteSpace=wrap;html=1;fillColor=none;" vertex="1" parent="1">
                    <mxGeometry x="-300" y="400" width="600" height="400" as="geometry"/>
                </mxCell>
                <mxCell id="8gGHFeD9K-X_0oZWLWLG-2" value="" style="endArrow=none;html=1;exitX=0;exitY=0.15;exitDx=0;exitDy=0;exitPerimeter=0;entryX=1;entryY=0.149;entryDx=0;entryDy=0;entryPerimeter=0;rounded=0;" edge="1" parent="1" source="8gGHFeD9K-X_0oZWLWLG-1" target="8gGHFeD9K-X_0oZWLWLG-1">
                    <mxGeometry width="50" height="50" relative="1" as="geometry">
                        <mxPoint x="-130" y="655" as="sourcePoint"/>
                        <mxPoint x="-80" y="605" as="targetPoint"/>
                    </mxGeometry>
                </mxCell>
                <mxCell id="8gGHFeD9K-X_0oZWLWLG-3" value="Logout" style="rounded=0;whiteSpace=wrap;html=1;" vertex="1" parent="1">
                    <mxGeometry x="170" y="410" width="120" height="40" as="geometry"/>
                </mxCell>
                <mxCell id="8gGHFeD9K-X_0oZWLWLG-4" value="PC Builder" style="rounded=0;whiteSpace=wrap;html=1;fillColor=#647687;fontColor=#ffffff;strokeColor=#314354;" vertex="1" parent="1">
                    <mxGeometry x="-125" y="410" width="120" height="40" as="geometry"/>
                </mxCell>
                <mxCell id="8gGHFeD9K-X_0oZWLWLG-5" value="Orders" style="rounded=0;whiteSpace=wrap;html=1;" vertex="1" parent="1">
                    <mxGeometry x="5" y="410" width="120" height="40" as="geometry"/>
                </mxCell>
                <mxCell id="8gGHFeD9K-X_0oZWLWLG-6" value="Account" style="rounded=0;whiteSpace=wrap;html=1;" vertex="1" parent="1">
                    <mxGeometry x="-290" y="410" width="115" height="40" as="geometry"/>
                </mxCell>
                <mxCell id="8gGHFeD9K-X_0oZWLWLG-22" value="PC Builder" style="rounded=0;whiteSpace=wrap;html=1;fillColor=none;" vertex="1" parent="1">
                    <mxGeometry x="-240" y="480" width="380" height="300" as="geometry"/>
                </mxCell>
                <mxCell id="8gGHFeD9K-X_0oZWLWLG-23" value="Add to cart" style="rounded=0;whiteSpace=wrap;html=1;fillColor=default;" vertex="1" parent="1">
                    <mxGeometry x="160" y="740" width="120" height="40" as="geometry"/>
                </mxCell>
                <mxCell id="8gGHFeD9K-X_0oZWLWLG-24" value="[price]" style="text;html=1;strokeColor=none;fillColor=none;align=center;verticalAlign=middle;whiteSpace=wrap;rounded=0;" vertex="1" parent="1">
                    <mxGeometry x="160" y="690" width="120" height="30" as="geometry"/>
                </mxCell>
            </root>
        </mxGraphModel>
    </diagram>
    <diagram id="Ue0RFh71Ngnf2P_xGivw" name="orders">
        <mxGraphModel dx="1980" dy="1247" grid="1" gridSize="5" guides="1" tooltips="1" connect="1" arrows="1" fold="1" page="0" pageScale="1" pageWidth="850" pageHeight="1100" math="0" shadow="0">
            <root>
                <mxCell id="0"/>
                <mxCell id="1" parent="0"/>
                <mxCell id="93ULn-qPQOEIEpYLwPqL-1" value="" style="rounded=0;whiteSpace=wrap;html=1;fillColor=none;" vertex="1" parent="1">
                    <mxGeometry x="-300" y="-40" width="600" height="400" as="geometry"/>
                </mxCell>
                <mxCell id="93ULn-qPQOEIEpYLwPqL-2" value="" style="endArrow=none;html=1;exitX=0;exitY=0.15;exitDx=0;exitDy=0;exitPerimeter=0;entryX=1;entryY=0.149;entryDx=0;entryDy=0;entryPerimeter=0;rounded=0;" edge="1" parent="1" source="93ULn-qPQOEIEpYLwPqL-1" target="93ULn-qPQOEIEpYLwPqL-1">
                    <mxGeometry width="50" height="50" relative="1" as="geometry">
                        <mxPoint x="-130" y="215" as="sourcePoint"/>
                        <mxPoint x="-80" y="165" as="targetPoint"/>
                    </mxGeometry>
                </mxCell>
                <mxCell id="93ULn-qPQOEIEpYLwPqL-3" value="Logout" style="rounded=0;whiteSpace=wrap;html=1;" vertex="1" parent="1">
                    <mxGeometry x="170" y="-30" width="120" height="40" as="geometry"/>
                </mxCell>
                <mxCell id="93ULn-qPQOEIEpYLwPqL-4" value="PC Builder" style="rounded=0;whiteSpace=wrap;html=1;" vertex="1" parent="1">
                    <mxGeometry x="-125" y="-30" width="120" height="40" as="geometry"/>
                </mxCell>
                <mxCell id="93ULn-qPQOEIEpYLwPqL-5" value="Orders" style="rounded=0;whiteSpace=wrap;html=1;fillColor=#647687;fontColor=#ffffff;strokeColor=#314354;" vertex="1" parent="1">
                    <mxGeometry x="5" y="-30" width="120" height="40" as="geometry"/>
                </mxCell>
                <mxCell id="93ULn-qPQOEIEpYLwPqL-6" value="Account" style="rounded=0;whiteSpace=wrap;html=1;" vertex="1" parent="1">
                    <mxGeometry x="-290" y="-30" width="115" height="40" as="geometry"/>
                </mxCell>
                <mxCell id="93ULn-qPQOEIEpYLwPqL-21" value="" style="rounded=0;whiteSpace=wrap;html=1;fillColor=none;" vertex="1" parent="1">
                    <mxGeometry x="-240" y="60" width="480" height="200" as="geometry"/>
                </mxCell>
                <mxCell id="TkunfCidrv9xYF4eUjPU-1" value="" style="endArrow=none;html=1;exitX=0.667;exitY=0;exitDx=0;exitDy=0;exitPerimeter=0;entryX=0.667;entryY=1.001;entryDx=0;entryDy=0;entryPerimeter=0;" edge="1" parent="1" source="93ULn-qPQOEIEpYLwPqL-21" target="93ULn-qPQOEIEpYLwPqL-21">
                    <mxGeometry width="50" height="50" relative="1" as="geometry">
                        <mxPoint x="10" y="135" as="sourcePoint"/>
                        <mxPoint x="60" y="85" as="targetPoint"/>
                    </mxGeometry>
                </mxCell>
                <mxCell id="TkunfCidrv9xYF4eUjPU-2" value="Grid of Builds in Cart" style="text;html=1;strokeColor=none;fillColor=none;align=center;verticalAlign=middle;whiteSpace=wrap;rounded=0;" vertex="1" parent="1">
                    <mxGeometry x="-160" y="145" width="170" height="30" as="geometry"/>
                </mxCell>
                <mxCell id="TkunfCidrv9xYF4eUjPU-3" value="Order" style="rounded=0;whiteSpace=wrap;html=1;" vertex="1" parent="1">
                    <mxGeometry x="100" y="200" width="120" height="40" as="geometry"/>
                </mxCell>
                <mxCell id="TkunfCidrv9xYF4eUjPU-4" value="Total Price" style="text;html=1;strokeColor=none;fillColor=none;align=center;verticalAlign=middle;whiteSpace=wrap;rounded=0;" vertex="1" parent="1">
                    <mxGeometry x="130" y="85" width="60" height="30" as="geometry"/>
                </mxCell>
                <mxCell id="TkunfCidrv9xYF4eUjPU-5" value="Shipping address" style="text;html=1;strokeColor=none;fillColor=none;align=center;verticalAlign=middle;whiteSpace=wrap;rounded=0;" vertex="1" parent="1">
                    <mxGeometry x="112.5" y="120" width="95" height="30" as="geometry"/>
                </mxCell>
                <mxCell id="3TkfOPLGp2V8Xc36Un93-1" value="" style="rounded=0;whiteSpace=wrap;html=1;fillColor=none;" vertex="1" parent="1">
                    <mxGeometry x="340" y="-40" width="600" height="400" as="geometry"/>
                </mxCell>
                <mxCell id="3TkfOPLGp2V8Xc36Un93-2" value="" style="endArrow=none;html=1;exitX=0;exitY=0.15;exitDx=0;exitDy=0;exitPerimeter=0;entryX=1;entryY=0.149;entryDx=0;entryDy=0;entryPerimeter=0;rounded=0;" edge="1" parent="1" source="3TkfOPLGp2V8Xc36Un93-1" target="3TkfOPLGp2V8Xc36Un93-1">
                    <mxGeometry width="50" height="50" relative="1" as="geometry">
                        <mxPoint x="510" y="215" as="sourcePoint"/>
                        <mxPoint x="560" y="165" as="targetPoint"/>
                    </mxGeometry>
                </mxCell>
                <mxCell id="3TkfOPLGp2V8Xc36Un93-3" value="Logout" style="rounded=0;whiteSpace=wrap;html=1;" vertex="1" parent="1">
                    <mxGeometry x="810" y="-30" width="120" height="40" as="geometry"/>
                </mxCell>
                <mxCell id="3TkfOPLGp2V8Xc36Un93-4" value="PC Builder" style="rounded=0;whiteSpace=wrap;html=1;" vertex="1" parent="1">
                    <mxGeometry x="515" y="-30" width="120" height="40" as="geometry"/>
                </mxCell>
                <mxCell id="3TkfOPLGp2V8Xc36Un93-5" value="Orders" style="rounded=0;whiteSpace=wrap;html=1;fillColor=#647687;fontColor=#ffffff;strokeColor=#314354;" vertex="1" parent="1">
                    <mxGeometry x="645" y="-30" width="120" height="40" as="geometry"/>
                </mxCell>
                <mxCell id="3TkfOPLGp2V8Xc36Un93-6" value="Account" style="rounded=0;whiteSpace=wrap;html=1;" vertex="1" parent="1">
                    <mxGeometry x="350" y="-30" width="115" height="40" as="geometry"/>
                </mxCell>
                <mxCell id="3TkfOPLGp2V8Xc36Un93-7" value="" style="rounded=0;whiteSpace=wrap;html=1;fillColor=none;" vertex="1" parent="1">
                    <mxGeometry x="400" y="60" width="480" height="200" as="geometry"/>
                </mxCell>
                <mxCell id="3TkfOPLGp2V8Xc36Un93-8" value="" style="endArrow=none;html=1;exitX=-0.001;exitY=0.195;exitDx=0;exitDy=0;exitPerimeter=0;entryX=1.001;entryY=0.199;entryDx=0;entryDy=0;entryPerimeter=0;" edge="1" parent="1" source="3TkfOPLGp2V8Xc36Un93-7" target="3TkfOPLGp2V8Xc36Un93-7">
                    <mxGeometry width="50" height="50" relative="1" as="geometry">
                        <mxPoint x="650" y="135" as="sourcePoint"/>
                        <mxPoint x="700" y="85" as="targetPoint"/>
                    </mxGeometry>
                </mxCell>
                <mxCell id="3TkfOPLGp2V8Xc36Un93-9" value="Grid of Builds in order" style="text;html=1;strokeColor=none;fillColor=none;align=center;verticalAlign=middle;whiteSpace=wrap;rounded=0;" vertex="1" parent="1">
                    <mxGeometry x="480" y="140" width="320" height="80" as="geometry"/>
                </mxCell>
                <mxCell id="3TkfOPLGp2V8Xc36Un93-11" value="Total Price" style="text;html=1;strokeColor=none;fillColor=none;align=center;verticalAlign=middle;whiteSpace=wrap;rounded=0;" vertex="1" parent="1">
                    <mxGeometry x="485" y="65" width="60" height="30" as="geometry"/>
                </mxCell>
                <mxCell id="3TkfOPLGp2V8Xc36Un93-12" value="Shipping address" style="text;html=1;strokeColor=none;fillColor=none;align=center;verticalAlign=middle;whiteSpace=wrap;rounded=0;" vertex="1" parent="1">
                    <mxGeometry x="780" y="65" width="95" height="30" as="geometry"/>
                </mxCell>
                <mxCell id="3TkfOPLGp2V8Xc36Un93-13" value="Order Date" style="text;html=1;strokeColor=none;fillColor=none;align=center;verticalAlign=middle;whiteSpace=wrap;rounded=0;" vertex="1" parent="1">
                    <mxGeometry x="405" y="65" width="65" height="30" as="geometry"/>
                </mxCell>
            </root>
        </mxGraphModel>
    </diagram>
</mxfile>